<svg xmlns="http://www.w3.org/2000/svg" viewBox="0 0 400 400" width="400" height="400">
  <!-- Background circle -->
  <ellipse cx="190" cy="220" rx="145" ry="140" fill="#F5C97A" opacity="0.5"/>
  <ellipse cx="190" cy="220" rx="110" ry="105" fill="#F5C97A" opacity="0.5"/>

  <!-- Floor lamp -->
  <!-- Lamp pole -->
  <rect x="108" y="130" width="8" height="180" rx="4" fill="#2C1A0E"/>
  <!-- Lamp base -->
  <ellipse cx="112" cy="312" rx="20" ry="6" fill="#2C1A0E"/>
  <!-- Lamp shade -->
  <polygon points="82,130 142,130 128,90 96,90" fill="#F5F0E0" stroke="#2C1A0E" stroke-width="2"/>
  <!-- Lamp shade bottom line -->
  <line x1="82" y1="130" x2="142" y2="130" stroke="#2C1A0E" stroke-width="2"/>
  <!-- Lamp glow -->
  <ellipse cx="112" cy="140" rx="35" ry="15" fill="#FFE08A" opacity="0.4"/>

  <!-- Armchair body -->
  <!-- Main seat cushion -->
  <rect x="140" y="230" width="160" height="60" rx="12" fill="#D4611A"/>
  <!-- Back cushion -->
  <rect x="140" y="155" width="160" height="85" rx="14" fill="#E07020"/>
  <!-- Left armrest -->
  <rect x="128" y="185" width="28" height="95" rx="10" fill="#C45510"/>
  <!-- Right armrest -->
  <rect x="284" y="185" width="28" height="95" rx="10" fill="#C45510"/>
  <!-- Seat highlight -->
  <ellipse cx="220" cy="238" rx="55" ry="10" fill="#E8892A" opacity="0.5"/>
  <!-- Back cushion center line -->
  <line x1="220" y1="162" x2="220" y2="232" stroke="#C45510" stroke-width="2" opacity="0.4"/>

  <!-- Chair legs -->
  <rect x="152" y="285" width="14" height="30" rx="5" fill="#2C1A0E"/>
  <rect x="274" y="285" width="14" height="30" rx="5" fill="#2C1A0E"/>
  <rect x="162" y="285" width="14" height="25" rx="5" fill="#2C1A0E"/>
  <rect x="264" y="285" width="14" height="25" rx="5" fill="#2C1A0E"/>

  <!-- Shadow under chair -->
  <ellipse cx="220" cy="318" rx="80" ry="8" fill="#1a0a00" opacity="0.25"/>

  <!-- Plant pot -->
  <!-- Pot -->
  <polygon points="265,310 295,310 290,345 270,345" fill="#2C1A0E"/>
  <!-- Pot rim -->
  <rect x="262" y="306" width="36" height="8" rx="3" fill="#3a2510"/>
  <!-- Plant stems -->
  <path d="M278 308 Q268 285 255 270" stroke="#3a7a2a" stroke-width="3" fill="none" stroke-linecap="round"/>
  <path d="M278 308 Q275 278 270 260" stroke="#3a7a2a" stroke-width="3" fill="none" stroke-linecap="round"/>
  <path d="M278 308 Q288 282 298 268" stroke="#3a7a2a" stroke-width="3" fill="none" stroke-linecap="round"/>
  <!-- Leaves -->
  <ellipse cx="252" cy="267" rx="14" ry="8" fill="#4a9a35" transform="rotate(-30 252 267)"/>
  <ellipse cx="269" cy="257" rx="14" ry="8" fill="#5aaa40" transform="rotate(-5 269 257)"/>
  <ellipse cx="300" cy="265" rx="14" ry="8" fill="#4a9a35" transform="rotate(25 300 265)"/>
</svg>
